<?xml version="1.0" standalone="no"?>
<!DOCTYPE svg PUBLIC "-//W3C//DTD SVG 20010904//EN"
 "http://www.w3.org/TR/2001/REC-SVG-20010904/DTD/svg10.dtd">
<svg version="1.0" xmlns="http://www.w3.org/2000/svg"
 width="512.000000pt" height="232.000000pt" viewBox="0 0 512.000000 232.000000"
 preserveAspectRatio="xMidYMid meet">

<g transform="translate(0.000000,232.000000) scale(0.100000,-0.100000)"
fill="#000000" stroke="none">
<path d="M4740 2244 c-8 -2 -91 -8 -184 -14 -94 -6 -171 -12 -173 -13 -1 -2
-29 -118 -62 -258 -68 -293 -67 -293 -76 26 -3 116 -9 213 -13 217 -7 7 -422
-19 -430 -27 -7 -7 -64 -557 -58 -563 7 -7 1006 65 1014 73 6 6 60 476 61 533
1 30 -1 32 -31 31 -18 -1 -40 -3 -48 -5z"/>
<path d="M3030 2128 c-68 -5 -127 -13 -130 -18 -9 -14 -65 -558 -59 -565 3 -2
156 6 340 20 184 14 340 25 346 25 50 0 103 290 73 400 -16 61 -54 108 -104
131 -35 16 -64 18 -191 17 -82 0 -206 -5 -275 -10z m253 -241 c9 -14 1 -136
-13 -188 -7 -27 -18 -40 -40 -49 -17 -7 -33 -10 -37 -7 -5 6 14 229 23 256 5
15 54 7 67 -12z"/>
<path d="M2268 2095 c-169 -43 -286 -159 -317 -315 -13 -68 -43 -301 -39 -305
8 -6 329 23 337 31 4 5 14 63 20 129 21 212 37 257 85 239 20 -8 21 -59 1
-224 -8 -69 -15 -129 -15 -134 0 -5 56 -6 133 -2 162 9 204 15 211 31 2 7 10
82 16 166 14 175 9 208 -43 285 -49 74 -119 106 -239 110 -59 2 -114 -2 -150
-11z"/>
<path d="M1721 2039 c-56 -4 -207 -15 -334 -24 -127 -9 -233 -18 -236 -21 -5
-5 -30 -201 -31 -243 l0 -24 95 7 c64 5 95 4 95 -3 0 -6 -7 -74 -16 -151 -9
-78 -14 -144 -10 -147 5 -5 328 15 334 22 2 2 11 70 19 152 9 81 18 150 20
153 3 3 45 7 93 10 49 3 92 8 94 11 8 7 34 252 29 262 -2 4 -14 6 -26 6 -12
-1 -69 -5 -126 -10z"/>
<path d="M639 1991 c-203 -28 -314 -121 -352 -295 -30 -137 -14 -316 29 -333
15 -5 498 25 524 33 9 3 -18 26 -70 59 -47 29 -103 66 -125 82 l-40 29 0 76
c0 85 18 118 63 118 l25 0 -5 -96 -5 -96 101 6 c210 13 213 14 220 48 3 17 6
74 6 127 0 110 -15 151 -70 189 -65 44 -196 67 -301 53z"/>
<path d="M4596 1596 c-77 -6 -141 -15 -142 -21 -6 -19 -64 -569 -64 -603 l0
-34 108 6 c59 4 125 9 148 12 l40 5 28 253 c36 338 41 396 30 395 -5 -1 -72
-7 -148 -13z"/>
<path d="M4181 1567 l-134 -9 7 -257 c3 -141 9 -285 13 -320 l6 -64 105 7 c59
4 107 8 108 9 1 1 33 139 73 307 40 168 74 313 77 323 5 15 -2 17 -58 15 -35
0 -123 -5 -197 -11z"/>
<path d="M3883 1545 c-78 -5 -144 -13 -148 -17 -7 -7 -76 -630 -70 -636 7 -7
288 17 295 25 7 9 74 633 68 636 -1 2 -67 -2 -145 -8z"/>
<path d="M3151 1494 c-173 -13 -316 -26 -319 -29 -8 -8 -74 -626 -68 -633 6
-5 328 17 335 23 4 5 60 500 61 543 0 32 57 32 69 -1 10 -25 9 -36 -20 -300
-10 -97 -19 -191 -19 -208 l0 -31 128 6 c70 4 141 10 158 12 l30 5 22 217 c26
252 28 322 7 362 -14 27 -52 62 -65 59 -3 -1 -146 -12 -319 -25z"/>
<path d="M2483 1446 c-78 -6 -144 -13 -146 -16 -3 -3 -15 -89 -26 -193 -25
-214 -32 -237 -73 -237 -26 0 -28 3 -28 38 0 20 7 114 17 209 9 95 15 174 13
177 -6 5 -327 -18 -334 -24 -10 -10 -38 -347 -33 -397 7 -64 49 -144 93 -178
56 -43 111 -58 214 -59 210 -1 366 94 430 262 19 50 60 321 60 397 0 30 -3 35
-22 33 -13 0 -87 -6 -165 -12z"/>
<path d="M1390 1368 c-63 -5 -116 -10 -117 -12 -7 -7 -70 -622 -64 -628 3 -3
80 -1 171 5 l165 12 26 240 c15 132 30 275 34 318 l7 77 -53 -1 c-30 -1 -106
-6 -169 -11z"/>
<path d="M630 1314 c-96 -7 -191 -14 -210 -16 -35 -3 -34 -4 73 -77 137 -94
147 -106 147 -188 0 -77 -20 -129 -55 -145 -21 -10 -29 -9 -42 5 -15 14 -15
29 -5 129 6 62 8 116 4 119 -4 3 -74 1 -156 -5 l-150 -11 -8 -30 c-5 -16 -10
-84 -11 -150 -2 -111 0 -123 23 -165 52 -93 164 -137 320 -127 178 12 318 91
369 207 44 103 55 367 18 438 -17 31 -19 32 -80 31 -34 -1 -141 -7 -237 -15z"/>
<path d="M2633 643 c-37 -4 -42 -7 -48 -34 -4 -17 -5 -33 -2 -35 3 -3 31 -2
63 3 57 8 59 9 62 41 3 26 0 32 -15 30 -10 -1 -37 -3 -60 -5z"/>
<path d="M3747 633 c-3 -5 -10 -44 -17 -88 -18 -113 -30 -116 -30 -7 l0 92
-50 0 c-36 0 -52 -4 -56 -15 -6 -14 11 -257 22 -321 5 -27 2 -32 -20 -38 -21
-5 -26 -12 -26 -38 l0 -31 68 5 c70 5 101 18 121 50 11 18 91 353 91 383 0 11
-12 15 -49 15 -28 0 -52 -3 -54 -7z"/>
<path d="M3526 609 c-22 -17 -25 -18 -19 -3 6 15 1 16 -52 10 -32 -3 -61 -8
-65 -11 -8 -5 -46 -373 -39 -378 2 -2 29 -1 59 2 l55 6 13 110 c10 90 16 113
33 128 12 9 27 17 34 17 14 0 25 44 25 101 0 44 -7 47 -44 18z"/>
<path d="M2265 588 c-6 -37 -45 -404 -45 -424 0 -16 105 -20 114 -5 4 5 13 74
22 153 14 130 24 171 39 156 3 -3 -1 -67 -10 -143 -8 -75 -15 -143 -15 -151 0
-12 12 -14 57 -12 l58 3 6 40 c4 22 13 99 20 172 12 125 12 134 -6 153 -20 22
-73 27 -107 9 -20 -11 -20 -9 -14 35 l7 46 -60 0 c-60 0 -60 0 -66 -32z"/>
<path d="M3178 600 c-47 -8 -84 -33 -102 -69 -8 -15 -20 -78 -27 -138 -10 -96
-9 -114 5 -141 28 -54 131 -64 200 -19 29 20 56 75 56 119 l0 33 -53 -3 -54
-4 -9 -46 c-5 -25 -15 -48 -23 -50 -11 -4 -13 5 -8 48 4 30 12 57 19 62 7 4
41 8 76 8 l62 0 2 43 c5 111 -10 142 -73 156 -19 4 -50 4 -71 1z m32 -89 c0
-26 -10 -51 -21 -51 -10 0 -12 53 -2 63 12 13 23 7 23 -12z"/>
<path d="M2908 576 c-14 -8 -30 -11 -35 -6 -4 4 -33 4 -63 1 l-55 -6 -16 -145
c-9 -80 -19 -166 -22 -192 l-5 -48 37 1 c87 2 84 -3 103 168 16 150 21 171 35
158 6 -7 -12 -230 -24 -291 l-5 -29 58 7 c32 4 61 11 64 17 4 5 12 67 19 137
7 70 15 141 18 159 4 25 0 37 -21 57 -28 29 -49 32 -88 12z"/>
<path d="M2575 518 c-8 -62 -35 -317 -35 -335 0 -13 10 -15 55 -11 30 3 58 8
62 11 6 7 42 304 43 355 0 20 -4 22 -59 22 l-60 0 -6 -42z"/>
<path d="M2036 520 c-39 -12 -73 -46 -85 -84 -14 -44 -29 -195 -23 -234 6 -45
44 -72 101 -72 89 0 142 48 157 139 7 43 6 44 -17 38 -13 -4 -39 -7 -56 -7
-28 0 -33 -4 -33 -24 0 -37 -19 -81 -30 -70 -9 9 2 155 16 222 8 37 24 25 24
-19 0 -38 2 -41 23 -35 12 3 37 6 55 6 32 0 32 1 32 48 0 38 -5 53 -24 71 -28
26 -93 36 -140 21z"/>
<path d="M4530 509 c-58 -4 -222 -15 -365 -24 -143 -9 -273 -17 -290 -18 -25
-2 -31 -7 -33 -31 l-4 -28 89 6 c48 3 162 10 253 16 91 6 263 17 383 25 119 8
226 15 237 15 15 0 20 7 20 25 0 25 0 25 -92 24 -51 -1 -140 -5 -198 -10z"/>
<path d="M1726 500 c-54 -17 -96 -76 -96 -135 0 -23 3 -25 48 -25 l47 -1 -47
-24 c-38 -20 -49 -32 -57 -62 -14 -48 -14 -99 -1 -123 13 -24 63 -35 91 -20
12 7 52 13 88 14 l66 1 12 95 c6 52 12 129 12 171 1 64 -2 79 -19 94 -23 21
-101 29 -144 15z m46 -106 c-4 -30 -18 -52 -27 -42 -4 3 -3 22 1 42 8 43 31
43 26 0z m-16 -169 c-4 -25 -11 -45 -17 -45 -13 0 -11 74 3 88 18 18 21 7 14
-43z"/>
<path d="M1466 469 c-25 -20 -28 -20 -45 -5 -22 20 -57 20 -93 2 -15 -8 -28
-10 -30 -5 -2 6 -27 7 -59 3 l-56 -6 -17 -172 c-9 -94 -18 -180 -19 -191 -2
-18 3 -20 53 -16 30 1 57 5 59 7 2 2 11 72 20 155 10 101 20 154 29 157 15 5
15 -28 -2 -183 -8 -66 -12 -122 -10 -124 4 -4 107 -2 111 2 1 1 9 70 18 152
16 140 25 178 41 162 3 -3 -1 -72 -10 -153 -9 -81 -14 -150 -11 -153 5 -4 107
-2 112 2 0 1 9 77 18 169 17 156 17 169 1 193 -21 32 -72 34 -110 4z"/>
<path d="M675 259 c-148 -10 -326 -22 -395 -26 l-125 -8 -3 -29 -4 -28 89 6
c48 3 162 10 253 16 91 6 261 17 379 25 118 8 225 15 238 15 18 0 23 5 23 25
0 25 0 25 -92 24 -51 -1 -214 -10 -363 -20z"/>
</g>
</svg>
